<svg xmlns="http://www.w3.org/2000/svg" viewBox="0 0 640 420">
  <defs>
    <linearGradient id="case7-bg" x1="0" y1="0" x2="1" y2="1">
      <stop offset="0%" stop-color="#1c0f3f" />
      <stop offset="100%" stop-color="#2d2770" />
    </linearGradient>
    <radialGradient id="case7-spot" cx="0.3" cy="0.3" r="0.6">
      <stop offset="0%" stop-color="#ff78f2" stop-opacity="0.8" />
      <stop offset="100%" stop-color="#ff78f2" stop-opacity="0" />
    </radialGradient>
    <linearGradient id="case7-cards" x1="0" y1="0" x2="1" y2="1">
      <stop offset="0%" stop-color="#66f0ff" />
      <stop offset="100%" stop-color="#7d74ff" />
    </linearGradient>
  </defs>
  <rect width="640" height="420" rx="28" fill="url(#case7-bg)" />
  <rect width="640" height="420" fill="url(#case7-spot)" />
  <g transform="translate(140 110)">
    <rect x="0" y="0" width="360" height="220" rx="28" fill="#0f0a2a" opacity="0.7" />
    <g transform="translate(40 44)" fill="none" stroke="url(#case7-cards)" stroke-width="6" stroke-linejoin="round">
      <rect x="0" y="0" width="116" height="148" rx="18" />
      <rect x="92" y="28" width="124" height="148" rx="20" />
      <rect x="192" y="12" width="116" height="148" rx="18" />
    </g>
    <g transform="translate(60 66)" fill="#ffb8ff" opacity="0.45">
      <rect x="0" y="8" width="88" height="12" rx="6" />
      <rect x="108" y="50" width="104" height="12" rx="6" opacity="0.7" />
      <rect x="212" y="8" width="96" height="12" rx="6" opacity="0.6" />
    </g>
    <path d="M60 156h240" stroke="#ffb8ff" stroke-width="4" stroke-linecap="round" opacity="0.6" />
    <g transform="translate(60 170)" fill="#ffb8ff" opacity="0.6">
      <rect x="0" y="0" width="72" height="12" rx="6" />
      <rect x="96" y="0" width="96" height="12" rx="6" />
      <rect x="216" y="0" width="72" height="12" rx="6" />
    </g>
  </g>
  <g fill="#ff78f2" opacity="0.35">
    <circle cx="120" cy="356" r="18" />
    <circle cx="200" cy="352" r="14" opacity="0.6" />
    <circle cx="280" cy="360" r="16" opacity="0.55" />
    <circle cx="360" cy="352" r="12" opacity="0.5" />
    <circle cx="440" cy="358" r="15" opacity="0.6" />
    <circle cx="520" cy="354" r="13" opacity="0.45" />
  </g>
</svg>
