<svg xmlns="http://www.w3.org/2000/svg" viewBox="0 0 640 420">
  <defs>
    <linearGradient id="case4-bg" x1="0" y1="0" x2="1" y2="1">
      <stop offset="0%" stop-color="#20144a" />
      <stop offset="100%" stop-color="#502a7c" />
    </linearGradient>
    <linearGradient id="case4-card" x1="0" y1="0" x2="1" y2="1">
      <stop offset="0%" stop-color="#ff8b6e" />
      <stop offset="100%" stop-color="#ffd36f" />
    </linearGradient>
  </defs>
  <rect width="640" height="420" rx="28" fill="url(#case4-bg)" />
  <g opacity="0.3" fill="none" stroke="#ffd8ff" stroke-width="1.4">
    <circle cx="160" cy="130" r="60" />
    <circle cx="320" cy="210" r="120" />
    <circle cx="520" cy="160" r="90" />
  </g>
  <g transform="translate(150 110)">
    <rect x="0" y="0" width="340" height="220" rx="24" fill="#140b33" opacity="0.6" />
    <rect x="30" y="30" width="280" height="160" rx="22" fill="url(#case4-card)" />
    <g transform="translate(70 50)" fill="#140b33">
      <circle cx="40" cy="40" r="36" opacity="0.8" />
      <path d="M40 18c12 0 22 10 22 22s-10 22-22 22-22-10-22-22 10-22 22-22z" fill="#fff" opacity="0.5" />
      <path d="M12 92c8-18 22-28 28-28h0c6 0 20 10 28 28" fill="#fff" opacity="0.5" />
    </g>
    <g transform="translate(160 62)" fill="#140b33">
      <rect x="0" y="0" width="120" height="16" rx="8" />
      <rect x="0" y="34" width="160" height="16" rx="8" opacity="0.7" />
      <rect x="0" y="68" width="100" height="16" rx="8" opacity="0.45" />
    </g>
  </g>
  <g opacity="0.4" fill="none" stroke="#ffd36f" stroke-width="3" stroke-linecap="round">
    <path d="M80 350c40-20 80-20 120 0" />
    <path d="M240 352c32-18 70-18 108 0" opacity="0.6" />
    <path d="M380 356c36-20 76-20 116 0" opacity="0.5" />
    <path d="M520 354c18-10 38-10 58 0" opacity="0.45" />
  </g>
</svg>
