<svg xmlns="http://www.w3.org/2000/svg" viewBox="0 0 640 420">
  <defs>
    <linearGradient id="case3-bg" x1="0" y1="1" x2="1" y2="0">
      <stop offset="0%" stop-color="#0f1d28" />
      <stop offset="100%" stop-color="#16526a" />
    </linearGradient>
    <linearGradient id="case3-chart" x1="0" y1="1" x2="0.9" y2="0">
      <stop offset="0%" stop-color="#24f1b0" />
      <stop offset="100%" stop-color="#7bffdd" />
    </linearGradient>
  </defs>
  <rect width="640" height="420" rx="28" fill="url(#case3-bg)" />
  <g opacity="0.35" stroke="#47d5ff" stroke-width="1.6" fill="none">
    <path d="M80 320c80-120 160-180 240-120s160-20 240-160" />
    <path d="M60 260c60-60 180-60 240-10s120 52 220 0" />
  </g>
  <g transform="translate(120 120)">
    <rect width="400" height="220" rx="26" fill="#081017" opacity="0.65" />
    <g transform="translate(48 52)">
      <path d="M0 120h48l40-72 60 48 54-96 70 60 50-92 60 44" fill="none" stroke="#87f5ff" stroke-width="6" stroke-linecap="round" />
      <rect x="28" y="40" width="32" height="80" rx="12" fill="url(#case3-chart)" />
      <rect x="108" y="24" width="32" height="96" rx="12" fill="url(#case3-chart)" opacity="0.75" />
      <rect x="188" y="58" width="32" height="62" rx="12" fill="url(#case3-chart)" opacity="0.6" />
      <rect x="268" y="10" width="32" height="110" rx="12" fill="url(#case3-chart)" opacity="0.9" />
    </g>
    <g fill="#24f1b0" opacity="0.35">
      <circle cx="70" cy="32" r="10" />
      <circle cx="124" cy="28" r="8" />
      <circle cx="176" cy="36" r="9" />
      <circle cx="228" cy="30" r="7" />
      <circle cx="282" cy="34" r="11" />
    </g>
  </g>
  <g stroke="#47d5ff" stroke-width="3" opacity="0.4" fill="none" stroke-linecap="round">
    <path d="M80 350h120" />
    <path d="M220 360h160" opacity="0.6" />
    <path d="M400 348h140" opacity="0.45" />
    <path d="M120 370h90" opacity="0.55" />
  </g>
</svg>
