<svg xmlns="http://www.w3.org/2000/svg" viewBox="0 0 640 420">
  <defs>
    <linearGradient id="case2-bg" x1="0" y1="1" x2="1" y2="0">
      <stop offset="0%" stop-color="#18263a" />
      <stop offset="100%" stop-color="#2b5fa7" />
    </linearGradient>
    <linearGradient id="case2-card" x1="0" y1="0" x2="1" y2="1">
      <stop offset="0%" stop-color="#2ed6c8" />
      <stop offset="100%" stop-color="#6f7cff" />
    </linearGradient>
  </defs>
  <rect fill="url(#case2-bg)" width="640" height="420" rx="28" />
  <g opacity="0.35" fill="none" stroke="#9ce8ff" stroke-width="1.5">
    <path d="M60 160h520" />
    <path d="M80 220h480" />
    <path d="M120 280h420" />
    <path d="M140 120h400" />
  </g>
  <g transform="translate(160 90)">
    <rect x="0" y="0" width="320" height="220" rx="28" fill="#0b172b" opacity="0.65" />
    <rect x="26" y="26" width="268" height="168" rx="22" fill="url(#case2-card)" />
    <circle cx="94" cy="110" r="36" fill="#0b172b" opacity="0.4" />
    <path d="M80 112l12 12 20-28" fill="none" stroke="#ffffff" stroke-width="8" stroke-linecap="round" stroke-linejoin="round" />
    <g transform="translate(150 60)" fill="#0b172b">
      <rect x="0" y="0" width="96" height="14" rx="7" />
      <rect x="0" y="32" width="124" height="14" rx="7" opacity="0.6" />
      <rect x="0" y="64" width="84" height="14" rx="7" opacity="0.35" />
    </g>
  </g>
  <g fill="#6f7cff" opacity="0.45">
    <circle cx="120" cy="356" r="18" />
    <circle cx="200" cy="360" r="12" opacity="0.6" />
    <circle cx="260" cy="350" r="16" opacity="0.7" />
    <circle cx="340" cy="362" r="14" opacity="0.55" />
    <circle cx="420" cy="356" r="20" opacity="0.65" />
    <circle cx="500" cy="360" r="13" opacity="0.5" />
  </g>
</svg>
