<svg width="160" height="160" viewBox="0 0 160 160" fill="none" xmlns="http://www.w3.org/2000/svg">
  <defs>
    <linearGradient id="development-bg" x1="28" y1="26" x2="134" y2="134" gradientUnits="userSpaceOnUse">
      <stop offset="0" stop-color="#F7D87A" />
      <stop offset="1" stop-color="#F2A25C" />
    </linearGradient>
    <linearGradient id="development-accent" x1="46" y1="44" x2="120" y2="116" gradientUnits="userSpaceOnUse">
      <stop offset="0" stop-color="#4C5F2B" />
      <stop offset="1" stop-color="#7B8C45" />
    </linearGradient>
  </defs>
  <rect x="24" y="24" width="112" height="112" rx="32" fill="url(#development-bg)" opacity="0.28" />
  <rect x="46" y="50" width="32" height="32" rx="10" fill="#FCF7E6" stroke="#C9B88D" stroke-width="4" />
  <rect x="82" y="50" width="32" height="32" rx="10" fill="#FCF7E6" stroke="#C9B88D" stroke-width="4" />
  <rect x="64" y="96" width="32" height="32" rx="12" fill="url(#development-accent)" />
  <path d="M78 82V96" stroke="#4C5F2B" stroke-width="6" stroke-linecap="round" />
  <path d="M62 66H58" stroke="#F2A25C" stroke-width="6" stroke-linecap="round" />
  <path d="M102 66H106" stroke="#F2A25C" stroke-width="6" stroke-linecap="round" />
  <path d="M62 66H54" stroke="#4C5F2B" stroke-width="4" stroke-linecap="round" />
  <path d="M106 66H114" stroke="#4C5F2B" stroke-width="4" stroke-linecap="round" />
  <circle cx="60" cy="120" r="9" fill="#F7D87A" />
  <circle cx="100" cy="120" r="9" fill="#F2A25C" />
  <path
    d="M78 66C78 62.134 81.134 59 85 59C87.7143 59 90 61.2857 90 64C90 66.7143 87.7143 69 85 69C81.134 69 78 72.134 78 76"
    stroke="#4C5F2B"
    stroke-width="4"
    stroke-linecap="round"
  />
  <path
    d="M82 104C82 101.791 83.7915 100 86 100H90C92.2085 100 94 101.791 94 104V108C94 110.209 92.2085 112 90 112H82V104Z"
    fill="#FCF7E6"
    stroke="#4C5F2B"
    stroke-width="3"
  />
</svg>
