<svg width="160" height="160" viewBox="0 0 160 160" fill="none" xmlns="http://www.w3.org/2000/svg">
  <defs>
    <linearGradient id="implementation-bg" x1="26" y1="22" x2="138" y2="142" gradientUnits="userSpaceOnUse">
      <stop offset="0" stop-color="#F7D87A" />
      <stop offset="1" stop-color="#F2A25C" />
    </linearGradient>
    <linearGradient id="implementation-accent" x1="60" y1="40" x2="104" y2="120" gradientUnits="userSpaceOnUse">
      <stop offset="0" stop-color="#4C5F2B" />
      <stop offset="1" stop-color="#7B8C45" />
    </linearGradient>
    <filter id="drop" x="48" y="28" width="64" height="108" filterUnits="userSpaceOnUse" color-interpolation-filters="sRGB">
      <feOffset dy="4" />
      <feGaussianBlur stdDeviation="4" result="blur" />
      <feComposite in2="blur" operator="in" />
      <feComposite in="SourceGraphic" />
    </filter>
  </defs>
  <rect x="22" y="22" width="116" height="116" rx="34" fill="url(#implementation-bg)" opacity="0.25" />
  <g filter="url(#drop)">
    <path
      d="M80 36C68 48 60 66 60 92C60 105.255 64.812 117.377 71.5 126.5C74.5 118 82.5 113 82.5 113H77L84 101H76C75.0074 93.033 76.282 86.399 80 80C83.718 86.399 84.9926 93.033 84 101H76L83 113H77.5C77.5 113 85.5 118 88.5 126.5C95.188 117.377 100 105.255 100 92C100 66 92 48 80 36Z"
      fill="#FCF7E6"
      stroke="#C9B88D"
      stroke-width="4"
      stroke-linejoin="round"
    />
  </g>
  <path
    d="M68 78C68 69.1634 74.1634 63 80 63C85.8366 63 92 69.1634 92 78C92 86.8366 85.8366 95 80 95C74.1634 95 68 86.8366 68 78Z"
    fill="url(#implementation-accent)"
  />
  <path d="M80 45L88 55H72L80 45Z" fill="#F7D87A" />
  <path d="M63 93L56 105" stroke="#F2A25C" stroke-width="6" stroke-linecap="round" />
  <path d="M97 93L104 105" stroke="#F2A25C" stroke-width="6" stroke-linecap="round" />
  <path
    d="M64 124C64 116 70 111 80 111C90 111 96 116 96 124"
    stroke="#F2A25C"
    stroke-width="6"
    stroke-linecap="round"
  />
</svg>
